<mxfile host="app.diagrams.net" agent="Mozilla/5.0 (Windows NT 10.0; Win64; x64) AppleWebKit/537.36 (KHTML, like Gecko) Chrome/136.0.0.0 Safari/537.36 Edg/136.0.0.0" version="27.0.5">
  <diagram name="第 1 页" id="Iy5OD-6gntti-ZoXscAL">
    <mxGraphModel dx="1938" dy="724" grid="1" gridSize="10" guides="1" tooltips="1" connect="1" arrows="1" fold="1" page="1" pageScale="1" pageWidth="827" pageHeight="1169" background="none" math="0" shadow="0">
      <root>
        <mxCell id="0" />
        <mxCell id="1" parent="0" />
        <mxCell id="uBIBVCoVCVhwwk560Gj--2" style="edgeStyle=orthogonalEdgeStyle;rounded=0;orthogonalLoop=1;jettySize=auto;html=1;exitX=0.5;exitY=1;exitDx=0;exitDy=0;entryX=0.5;entryY=0;entryDx=0;entryDy=0;" edge="1" parent="1" source="uBIBVCoVCVhwwk560Gj--1" target="uBIBVCoVCVhwwk560Gj--3">
          <mxGeometry relative="1" as="geometry">
            <mxPoint x="540" y="380" as="targetPoint" />
          </mxGeometry>
        </mxCell>
        <mxCell id="uBIBVCoVCVhwwk560Gj--5" style="edgeStyle=orthogonalEdgeStyle;rounded=0;orthogonalLoop=1;jettySize=auto;html=1;exitX=0.5;exitY=1;exitDx=0;exitDy=0;" edge="1" parent="1" source="uBIBVCoVCVhwwk560Gj--1" target="uBIBVCoVCVhwwk560Gj--4">
          <mxGeometry relative="1" as="geometry" />
        </mxCell>
        <mxCell id="uBIBVCoVCVhwwk560Gj--6" style="edgeStyle=orthogonalEdgeStyle;rounded=0;orthogonalLoop=1;jettySize=auto;html=1;exitX=0.5;exitY=1;exitDx=0;exitDy=0;" edge="1" parent="1" source="uBIBVCoVCVhwwk560Gj--1" target="uBIBVCoVCVhwwk560Gj--7">
          <mxGeometry relative="1" as="geometry">
            <mxPoint x="660" y="350" as="targetPoint" />
          </mxGeometry>
        </mxCell>
        <mxCell id="uBIBVCoVCVhwwk560Gj--36" style="edgeStyle=orthogonalEdgeStyle;rounded=0;orthogonalLoop=1;jettySize=auto;html=1;exitX=0.5;exitY=1;exitDx=0;exitDy=0;" edge="1" parent="1" source="uBIBVCoVCVhwwk560Gj--1" target="uBIBVCoVCVhwwk560Gj--37">
          <mxGeometry relative="1" as="geometry">
            <mxPoint x="800" y="430" as="targetPoint" />
          </mxGeometry>
        </mxCell>
        <mxCell id="uBIBVCoVCVhwwk560Gj--1" value="&lt;font style=&quot;font-size: 16px;&quot;&gt;物联网鸡舍系统&lt;/font&gt;" style="rounded=0;whiteSpace=wrap;html=1;" vertex="1" parent="1">
          <mxGeometry x="480" y="240" width="120" height="60" as="geometry" />
        </mxCell>
        <mxCell id="uBIBVCoVCVhwwk560Gj--8" style="edgeStyle=orthogonalEdgeStyle;rounded=0;orthogonalLoop=1;jettySize=auto;html=1;exitX=0.5;exitY=1;exitDx=0;exitDy=0;" edge="1" parent="1" source="uBIBVCoVCVhwwk560Gj--3" target="uBIBVCoVCVhwwk560Gj--9">
          <mxGeometry relative="1" as="geometry">
            <mxPoint x="80" y="560" as="targetPoint" />
          </mxGeometry>
        </mxCell>
        <mxCell id="uBIBVCoVCVhwwk560Gj--10" style="edgeStyle=orthogonalEdgeStyle;rounded=0;orthogonalLoop=1;jettySize=auto;html=1;exitX=0.5;exitY=1;exitDx=0;exitDy=0;entryX=0.5;entryY=0;entryDx=0;entryDy=0;" edge="1" parent="1" source="uBIBVCoVCVhwwk560Gj--3" target="uBIBVCoVCVhwwk560Gj--11">
          <mxGeometry relative="1" as="geometry">
            <mxPoint x="330" y="590" as="targetPoint" />
          </mxGeometry>
        </mxCell>
        <mxCell id="uBIBVCoVCVhwwk560Gj--3" value="&lt;font style=&quot;font-size: 16px;&quot;&gt;系统展示网页&lt;/font&gt;" style="rounded=0;whiteSpace=wrap;html=1;" vertex="1" parent="1">
          <mxGeometry x="110" y="430" width="120" height="60" as="geometry" />
        </mxCell>
        <mxCell id="uBIBVCoVCVhwwk560Gj--12" style="edgeStyle=orthogonalEdgeStyle;rounded=0;orthogonalLoop=1;jettySize=auto;html=1;exitX=0.5;exitY=1;exitDx=0;exitDy=0;" edge="1" parent="1" source="uBIBVCoVCVhwwk560Gj--4" target="uBIBVCoVCVhwwk560Gj--13">
          <mxGeometry relative="1" as="geometry">
            <mxPoint x="540.5714285714289" y="560" as="targetPoint" />
          </mxGeometry>
        </mxCell>
        <mxCell id="uBIBVCoVCVhwwk560Gj--15" style="edgeStyle=orthogonalEdgeStyle;rounded=0;orthogonalLoop=1;jettySize=auto;html=1;exitX=0.5;exitY=1;exitDx=0;exitDy=0;entryX=0.5;entryY=0;entryDx=0;entryDy=0;" edge="1" parent="1" source="uBIBVCoVCVhwwk560Gj--4" target="uBIBVCoVCVhwwk560Gj--32">
          <mxGeometry relative="1" as="geometry">
            <mxPoint x="600.1399999999999" y="600" as="targetPoint" />
          </mxGeometry>
        </mxCell>
        <mxCell id="uBIBVCoVCVhwwk560Gj--4" value="&lt;font style=&quot;font-size: 16px;&quot;&gt;华为云平台&lt;/font&gt;" style="rounded=0;whiteSpace=wrap;html=1;" vertex="1" parent="1">
          <mxGeometry x="480" y="430" width="120" height="60" as="geometry" />
        </mxCell>
        <mxCell id="uBIBVCoVCVhwwk560Gj--33" style="edgeStyle=orthogonalEdgeStyle;rounded=0;orthogonalLoop=1;jettySize=auto;html=1;exitX=0.5;exitY=1;exitDx=0;exitDy=0;entryX=0.5;entryY=0;entryDx=0;entryDy=0;" edge="1" parent="1" source="uBIBVCoVCVhwwk560Gj--7" target="uBIBVCoVCVhwwk560Gj--35">
          <mxGeometry relative="1" as="geometry">
            <mxPoint x="1034.7142857142862" y="600" as="targetPoint" />
          </mxGeometry>
        </mxCell>
        <mxCell id="uBIBVCoVCVhwwk560Gj--7" value="&lt;font style=&quot;font-size: 16px;&quot;&gt;树莓派监控系统&lt;/font&gt;" style="rounded=0;whiteSpace=wrap;html=1;" vertex="1" parent="1">
          <mxGeometry x="1090" y="430" width="120" height="60" as="geometry" />
        </mxCell>
        <mxCell id="uBIBVCoVCVhwwk560Gj--16" style="edgeStyle=orthogonalEdgeStyle;rounded=0;orthogonalLoop=1;jettySize=auto;html=1;exitX=0.5;exitY=1;exitDx=0;exitDy=0;" edge="1" parent="1" source="uBIBVCoVCVhwwk560Gj--9" target="uBIBVCoVCVhwwk560Gj--17">
          <mxGeometry relative="1" as="geometry">
            <mxPoint x="-140" y="730" as="targetPoint" />
          </mxGeometry>
        </mxCell>
        <mxCell id="uBIBVCoVCVhwwk560Gj--19" style="edgeStyle=orthogonalEdgeStyle;rounded=0;orthogonalLoop=1;jettySize=auto;html=1;exitX=0.5;exitY=1;exitDx=0;exitDy=0;entryX=0.5;entryY=0;entryDx=0;entryDy=0;" edge="1" parent="1" source="uBIBVCoVCVhwwk560Gj--9" target="uBIBVCoVCVhwwk560Gj--20">
          <mxGeometry relative="1" as="geometry">
            <mxPoint x="-70" y="740" as="targetPoint" />
          </mxGeometry>
        </mxCell>
        <mxCell id="uBIBVCoVCVhwwk560Gj--22" style="edgeStyle=orthogonalEdgeStyle;rounded=0;orthogonalLoop=1;jettySize=auto;html=1;exitX=0.5;exitY=1;exitDx=0;exitDy=0;entryX=0.5;entryY=0;entryDx=0;entryDy=0;" edge="1" parent="1" source="uBIBVCoVCVhwwk560Gj--9" target="uBIBVCoVCVhwwk560Gj--23">
          <mxGeometry relative="1" as="geometry">
            <mxPoint y="740" as="targetPoint" />
          </mxGeometry>
        </mxCell>
        <mxCell id="uBIBVCoVCVhwwk560Gj--25" style="edgeStyle=orthogonalEdgeStyle;rounded=0;orthogonalLoop=1;jettySize=auto;html=1;exitX=0.5;exitY=1;exitDx=0;exitDy=0;entryX=0.5;entryY=0;entryDx=0;entryDy=0;" edge="1" parent="1" source="uBIBVCoVCVhwwk560Gj--9" target="uBIBVCoVCVhwwk560Gj--26">
          <mxGeometry relative="1" as="geometry">
            <mxPoint x="100" y="740" as="targetPoint" />
          </mxGeometry>
        </mxCell>
        <mxCell id="uBIBVCoVCVhwwk560Gj--9" value="&lt;font style=&quot;font-size: 16px;&quot;&gt;网页前端&lt;/font&gt;" style="rounded=0;whiteSpace=wrap;html=1;" vertex="1" parent="1">
          <mxGeometry x="-90" y="590" width="120" height="60" as="geometry" />
        </mxCell>
        <mxCell id="uBIBVCoVCVhwwk560Gj--27" style="edgeStyle=orthogonalEdgeStyle;rounded=0;orthogonalLoop=1;jettySize=auto;html=1;exitX=0.5;exitY=1;exitDx=0;exitDy=0;entryX=0.5;entryY=0;entryDx=0;entryDy=0;" edge="1" parent="1" source="uBIBVCoVCVhwwk560Gj--11" target="uBIBVCoVCVhwwk560Gj--28">
          <mxGeometry relative="1" as="geometry">
            <mxPoint x="250" y="710" as="targetPoint" />
          </mxGeometry>
        </mxCell>
        <mxCell id="uBIBVCoVCVhwwk560Gj--11" value="&lt;font style=&quot;font-size: 16px;&quot;&gt;网页后端&lt;/font&gt;" style="rounded=0;whiteSpace=wrap;html=1;" vertex="1" parent="1">
          <mxGeometry x="270" y="590" width="120" height="60" as="geometry" />
        </mxCell>
        <mxCell id="uBIBVCoVCVhwwk560Gj--13" value="&lt;font style=&quot;font-size: 16px;&quot;&gt;产品模型以及设备创建&lt;/font&gt;" style="rounded=0;whiteSpace=wrap;html=1;textDirection=vertical-lr;" vertex="1" parent="1">
          <mxGeometry x="450.28" y="600" width="69.43" height="180" as="geometry" />
        </mxCell>
        <mxCell id="uBIBVCoVCVhwwk560Gj--17" value="&lt;font style=&quot;font-size: 16px;&quot;&gt;用户登陆及注册&lt;/font&gt;" style="rounded=0;whiteSpace=wrap;html=1;textDirection=vertical-lr;" vertex="1" parent="1">
          <mxGeometry x="-210" y="740" width="69.43" height="180" as="geometry" />
        </mxCell>
        <mxCell id="uBIBVCoVCVhwwk560Gj--20" value="&lt;span style=&quot;font-size: 16px;&quot;&gt;环境数据查看&lt;/span&gt;" style="rounded=0;whiteSpace=wrap;html=1;textDirection=vertical-lr;" vertex="1" parent="1">
          <mxGeometry x="-120" y="740" width="69.43" height="180" as="geometry" />
        </mxCell>
        <mxCell id="uBIBVCoVCVhwwk560Gj--23" value="&lt;span style=&quot;font-size: 16px;&quot;&gt;设备状态控制&lt;/span&gt;" style="rounded=0;whiteSpace=wrap;html=1;textDirection=vertical-lr;" vertex="1" parent="1">
          <mxGeometry x="-20.000000000000007" y="740" width="69.43" height="180" as="geometry" />
        </mxCell>
        <mxCell id="uBIBVCoVCVhwwk560Gj--26" value="&lt;span style=&quot;font-size: 16px;&quot;&gt;查看系统警告&lt;/span&gt;" style="rounded=0;whiteSpace=wrap;html=1;textDirection=vertical-lr;" vertex="1" parent="1">
          <mxGeometry x="80" y="740" width="69.43" height="180" as="geometry" />
        </mxCell>
        <mxCell id="uBIBVCoVCVhwwk560Gj--28" value="&lt;span style=&quot;font-size: 16px;&quot;&gt;转发前端请求&lt;/span&gt;" style="rounded=0;whiteSpace=wrap;html=1;textDirection=vertical-lr;" vertex="1" parent="1">
          <mxGeometry x="295.28999999999996" y="740" width="69.43" height="180" as="geometry" />
        </mxCell>
        <mxCell id="uBIBVCoVCVhwwk560Gj--32" value="&lt;font style=&quot;font-size: 16px;&quot;&gt;消息转发&lt;/font&gt;" style="rounded=0;whiteSpace=wrap;html=1;textDirection=vertical-lr;" vertex="1" parent="1">
          <mxGeometry x="560" y="600" width="69.43" height="180" as="geometry" />
        </mxCell>
        <mxCell id="uBIBVCoVCVhwwk560Gj--35" value="&lt;font style=&quot;font-size: 16px;&quot;&gt;摄像头视频转发&lt;/font&gt;" style="rounded=0;whiteSpace=wrap;html=1;" vertex="1" parent="1">
          <mxGeometry x="950" y="600" width="120" height="60" as="geometry" />
        </mxCell>
        <mxCell id="uBIBVCoVCVhwwk560Gj--38" style="edgeStyle=orthogonalEdgeStyle;rounded=0;orthogonalLoop=1;jettySize=auto;html=1;exitX=0.5;exitY=1;exitDx=0;exitDy=0;entryX=0.5;entryY=0;entryDx=0;entryDy=0;" edge="1" parent="1" source="uBIBVCoVCVhwwk560Gj--37" target="uBIBVCoVCVhwwk560Gj--39">
          <mxGeometry relative="1" as="geometry">
            <mxPoint x="740" y="600" as="targetPoint" />
          </mxGeometry>
        </mxCell>
        <mxCell id="uBIBVCoVCVhwwk560Gj--41" style="edgeStyle=orthogonalEdgeStyle;rounded=0;orthogonalLoop=1;jettySize=auto;html=1;exitX=0.5;exitY=1;exitDx=0;exitDy=0;entryX=0.5;entryY=0;entryDx=0;entryDy=0;" edge="1" parent="1" source="uBIBVCoVCVhwwk560Gj--37" target="uBIBVCoVCVhwwk560Gj--40">
          <mxGeometry relative="1" as="geometry" />
        </mxCell>
        <mxCell id="uBIBVCoVCVhwwk560Gj--37" value="PC视频服务器" style="rounded=0;whiteSpace=wrap;html=1;" vertex="1" parent="1">
          <mxGeometry x="740" y="430" width="120" height="60" as="geometry" />
        </mxCell>
        <mxCell id="uBIBVCoVCVhwwk560Gj--39" value="&lt;font style=&quot;font-size: 16px;&quot;&gt;接收树莓派图像并处理&lt;/font&gt;" style="rounded=0;whiteSpace=wrap;html=1;textDirection=vertical-lr;" vertex="1" parent="1">
          <mxGeometry x="710" y="600" width="69.43" height="180" as="geometry" />
        </mxCell>
        <mxCell id="uBIBVCoVCVhwwk560Gj--40" value="&lt;font style=&quot;font-size: 16px;&quot;&gt;视频推流&lt;/font&gt;" style="rounded=0;whiteSpace=wrap;html=1;textDirection=vertical-lr;" vertex="1" parent="1">
          <mxGeometry x="820" y="600" width="69.43" height="180" as="geometry" />
        </mxCell>
      </root>
    </mxGraphModel>
  </diagram>
</mxfile>
